<?xml version="1.0" standalone="no"?><!DOCTYPE svg PUBLIC "-//W3C//DTD SVG 1.1//EN" "http://www.w3.org/Graphics/SVG/1.1/DTD/svg11.dtd"><svg t="1540639215210" class="icon" style="" viewBox="0 0 1024 1024" version="1.1" xmlns="http://www.w3.org/2000/svg" p-id="7986" xmlns:xlink="http://www.w3.org/1999/xlink" width="200" height="200"><defs><style type="text/css"></style></defs><path d="M512 332.8c14.138 0 25.6-11.462 25.6-25.6V84.992c0-14.138-11.462-25.6-25.6-25.6s-25.6 11.462-25.6 25.6V307.2c0 14.138 11.462 25.6 25.6 25.6z" fill="#A1A1A1" p-id="7987"></path><path d="M385.287 385.286c9.997-9.997 9.997-26.206 0-36.203L228.162 191.957c-9.999-9.997-26.207-9.997-36.204 0s-9.997 26.206 0 36.204l157.125 157.124c4.999 4.998 11.55 7.498 18.102 7.498s13.103-2.498 18.102-7.497z" fill="#BABABA" p-id="7988"></path><path d="M84.992 537.6H307.2c14.138 0 25.6-11.462 25.6-25.6s-11.462-25.6-25.6-25.6H84.992c-14.138 0-25.6 11.462-25.6 25.6s11.462 25.6 25.6 25.6z" fill="#D3D3D3" p-id="7989"></path><path d="M191.958 832.043c5 4.998 11.55 7.498 18.102 7.498s13.103-2.5 18.103-7.498l157.124-157.125c9.997-9.997 9.997-26.206 0-36.203-9.998-9.997-26.206-9.997-36.203 0L191.958 795.838c-9.997 9.998-9.997 26.207 0 36.205z" fill="#EBEBEB" p-id="7990"></path><path d="M486.4 939.008c0 14.138 11.462 25.6 25.6 25.6s25.6-11.462 25.6-25.6V716.8c0-14.138-11.462-25.6-25.6-25.6s-25.6 11.462-25.6 25.6v222.208z" fill="#3E3E3E" p-id="7991"></path><path d="M638.713 674.917l157.124 157.125c5 4.998 11.55 7.498 18.103 7.498s13.103-2.5 18.102-7.498c9.997-9.997 9.997-26.206 0-36.204L674.917 638.714c-9.998-9.997-26.206-9.997-36.203 0-9.998 9.997-9.998 26.206-0.001 36.203z" fill="#565656" p-id="7992"></path><path d="M964.608 512c0-14.138-11.462-25.6-25.6-25.6H716.8c-14.138 0-25.6 11.462-25.6 25.6s11.462 25.6 25.6 25.6h222.208c14.138 0 25.6-11.462 25.6-25.6z" fill="#707070" p-id="7993"></path><path d="M656.815 392.785c6.552 0 13.103-2.5 18.102-7.498l157.125-157.124c9.997-9.998 9.997-26.207 0-36.204-9.998-9.997-26.206-9.997-36.204 0L638.713 349.083c-9.997 9.997-9.997 26.206 0 36.203 4.999 5 11.55 7.499 18.102 7.499z" fill="#898989" p-id="7994"></path></svg>